<?xml version="1.0" encoding="UTF-8" standalone="no"?>
<!-- Created with Inkscape (http://www.inkscape.org/) -->

<svg
   width="210mm"
   height="210mm"
   viewBox="0 0 210 210"
   version="1.1"
   id="svg366"
   inkscape:version="1.2.2 (732a01da63, 2022-12-09)"
   sodipodi:docname="passwordManagementIcon.svg"
   xmlns:inkscape="http://www.inkscape.org/namespaces/inkscape"
   xmlns:sodipodi="http://sodipodi.sourceforge.net/DTD/sodipodi-0.dtd"
   xmlns:xlink="http://www.w3.org/1999/xlink"
   xmlns="http://www.w3.org/2000/svg"
   xmlns:svg="http://www.w3.org/2000/svg">
  <sodipodi:namedview
     id="namedview368"
     pagecolor="#ffffff"
     bordercolor="#000000"
     borderopacity="0.25"
     inkscape:showpageshadow="2"
     inkscape:pageopacity="0.0"
     inkscape:pagecheckerboard="0"
     inkscape:deskcolor="#d1d1d1"
     inkscape:document-units="mm"
     showgrid="false"
     inkscape:zoom="0.93806818"
     inkscape:cx="440.26651"
     inkscape:cy="440.26651"
     inkscape:window-width="2880"
     inkscape:window-height="1496"
     inkscape:window-x="-12"
     inkscape:window-y="-12"
     inkscape:window-maximized="1"
     inkscape:current-layer="layer1" />
  <defs
     id="defs363">
    <linearGradient
       inkscape:collect="always"
       id="linearGradient3476">
      <stop
         style="stop-color:#00a900;stop-opacity:1;"
         offset="0"
         id="stop3472" />
      <stop
         style="stop-color:#008000;stop-opacity:1;"
         offset="1"
         id="stop3474" />
    </linearGradient>
    <rect
       x="326.73532"
       y="263.84009"
       width="179.62447"
       height="128.98849"
       id="rect1938" />
    <radialGradient
       inkscape:collect="always"
       xlink:href="#linearGradient3476"
       id="radialGradient3478"
       cx="115.29597"
       cy="77.071381"
       fx="115.29597"
       fy="77.071381"
       r="49.603409"
       gradientTransform="matrix(2.443994,-0.83397027,0.34676776,1.0162214,-172.53879,115.28285)"
       gradientUnits="userSpaceOnUse" />
  </defs>
  <g
     inkscape:label="Layer 1"
     inkscape:groupmode="layer"
     id="layer1">
    <path
       id="path3279"
       style="font-weight:bold;font-size:21.3333px;font-family:Consolas;-inkscape-font-specification:'Consolas Bold';white-space:pre;fill:url(#radialGradient3478);fill-opacity:1;stroke:none;stroke-width:10.9183;stroke-linecap:square;stroke-linejoin:round;stroke-opacity:1"
       d="m 37.336982,54.431397 c -20.629943,0 -37.336983,16.707041 -37.336983,37.336981 0,20.629932 16.70704,37.336992 37.336983,37.336992 H 172.66302 C 193.29296,129.10537 210,112.39831 210,91.768378 210,71.138438 193.29296,54.431397 172.66302,54.431397 Z m 0,6.271446 H 172.66302 c 17.26384,0 31.06554,13.801696 31.06554,31.065535 0,17.263832 -13.8017,31.065552 -31.06554,31.065552 H 37.336982 c -17.26384,0 -31.0655358,-13.80172 -31.0655358,-31.065552 0,-17.263839 13.8016958,-31.065535 31.0655358,-31.065535 z m -6.362199,5.067936 1.68535,18.596105 -15.106568,-10.832694 -6.078062,10.471857 16.911834,7.763412 -16.911832,7.763412 6.078062,10.471859 15.106566,-10.832695 -1.68535,18.596105 H 43.553327 L 41.807479,99.172035 56.973468,110.00473 62.992113,99.532871 46.140773,91.769459 62.992113,84.006047 56.973468,73.53419 41.807481,84.366884 43.55333,65.770779 Z m 67.766204,0 1.685343,18.596105 -15.106571,-10.832694 -6.078067,10.471857 16.911856,7.763412 -16.911856,7.763412 6.078067,10.471859 15.106571,-10.832695 -1.685343,18.596105 h 12.578523 l -1.74585,-18.596105 15.166,10.832695 6.01866,-10.471859 -16.85134,-7.763412 16.85134,-7.763412 -6.01866,-10.471857 -15.166,10.832694 1.74585,-18.596105 z m 67.766193,0 1.68536,18.596105 -15.10659,-10.832694 -6.07806,10.471857 16.91076,7.763412 -16.91076,7.763412 6.07806,10.471859 15.10659,-10.832695 -1.68536,18.596105 h 12.57747 l -1.7448,-18.596105 15.16601,10.832695 6.01864,-10.471859 -16.85134,-7.763412 16.85134,-7.763412 -6.01864,-10.471857 -15.16601,10.832694 1.7448,-18.596105 z M 85.882622,133.33927 c -6.147893,0 -11.249712,4.9848 -11.249712,11.11466 0,6.12987 5.101819,11.11467 11.249712,11.11467 4.963179,0 9.246083,-3.2484 10.712765,-7.7256 h 21.446083 v 3.33505 c 0,1.79018 1.44116,3.23134 3.23133,3.23134 h 0.31223 c 1.79016,0 3.23134,-1.44116 3.23134,-3.23134 V 147.843 h 2.55394 v 3.33505 c 0,1.79018 1.44116,3.23134 3.23133,3.23134 h 0.31333 c 1.79015,0 3.23132,-1.44116 3.23132,-3.23134 v -6.5664 -0.31329 c 0,-0.22377 -0.0231,-0.44178 -0.0658,-0.65253 -0.0106,-0.0527 -0.0225,-0.10495 -0.0358,-0.15664 -0.0127,-0.0517 -0.0275,-0.10283 -0.0431,-0.15347 -0.31376,-1.01305 -1.11091,-1.81017 -2.12397,-2.12397 -0.0506,-0.017 -0.10178,-0.0299 -0.15347,-0.0431 -0.0517,-0.0127 -0.1039,-0.0248 -0.15665,-0.0358 -0.21062,-0.0427 -0.42877,-0.0658 -0.65251,-0.0658 H 96.595387 c -1.466365,-4.47771 -5.749228,-7.72776 -10.712768,-7.72776 z m 0,6.27253 c 2.815798,0 4.981506,2.16025 4.981506,4.84213 0,2.68187 -2.165708,4.84322 -4.981506,4.84322 -2.815805,0 -4.978265,-2.16135 -4.978265,-4.84322 0,-2.68188 2.16246,-4.84213 4.978265,-4.84213 z" />
    <g
       id="g3520"
       transform="translate(-26.794872,239.17949)">
      <g
         aria-label="***"
         transform="matrix(2.7635825,0,0,2.7635825,-1023.7765,-678.51401)"
         id="text1936-4"
         style="font-size:21.3333px;font-family:Ubuntu;-inkscape-font-specification:Ubuntu;white-space:pre;shape-inside:url(#rect1938);fill:none;stroke:#000000;stroke-width:1.88976;stroke-linecap:square;stroke-linejoin:round">
        <path
           d="m 333.6927,278.01424 h -2.17708 l 0.29166,-3.21875 -2.61458,1.875 -1.05208,-1.8125 2.92708,-1.34374 -2.92708,-1.34375 1.05208,-1.8125 2.61458,1.875 -0.29166,-3.21875 h 2.17708 l -0.30209,3.21875 2.625,-1.875 1.04167,1.8125 -2.91667,1.34375 2.91667,1.34374 -1.04167,1.8125 -2.625,-1.875 z"
           style="font-weight:bold;font-family:Consolas;-inkscape-font-specification:'Consolas Bold';fill:#008000;stroke:none"
           id="path2044-9" />
        <path
           d="m 345.42185,278.01424 h -2.17708 l 0.29166,-3.21875 -2.61458,1.875 -1.05208,-1.8125 2.92708,-1.34374 -2.92708,-1.34375 1.05208,-1.8125 2.61458,1.875 -0.29166,-3.21875 h 2.17708 l -0.30209,3.21875 2.625,-1.875 1.04166,1.8125 -2.91666,1.34375 2.91666,1.34374 -1.04166,1.8125 -2.625,-1.875 z"
           style="font-weight:bold;font-family:Consolas;-inkscape-font-specification:'Consolas Bold';fill:#008000;stroke:none"
           id="path2046-3" />
        <path
           d="m 357.15099,278.01424 h -2.17708 l 0.29167,-3.21875 -2.61458,1.875 -1.05208,-1.8125 2.92708,-1.34374 -2.92708,-1.34375 1.05208,-1.8125 2.61458,1.875 -0.29167,-3.21875 h 2.17708 l -0.30208,3.21875 2.625,-1.875 1.04166,1.8125 -2.91666,1.34375 2.91666,1.34374 -1.04166,1.8125 -2.625,-1.875 z"
           style="font-weight:bold;font-family:Consolas;-inkscape-font-specification:'Consolas Bold';fill:#008000;stroke:none"
           id="path2048-5" />
      </g>
      <path
         style="color:#000000;fill:#008000;stroke-linecap:square;stroke-linejoin:round;-inkscape-stroke:none"
         d="m -104.56265,59.505295 c -9.86792,0 -17.85938,7.991459 -17.85938,17.859375 0,9.867916 7.99146,17.859379 17.85938,17.859379 h 64.730464 c 9.86792,0 17.85938,-7.991463 17.85938,-17.859379 0,-9.867916 -7.99146,-17.859375 -17.85938,-17.859375 z m 0,3 h 64.730464 c 8.25781,0 14.85938,6.601566 14.85938,14.859375 0,8.25781 -6.60157,14.859379 -14.85938,14.859379 h -64.730464 c -8.25781,0 -14.85938,-6.601569 -14.85938,-14.859379 0,-8.257809 6.60157,-14.859375 14.85938,-14.859375 z"
         id="rect2113-4" />
      <path
         id="rect2230-7"
         style="fill:#008000;fill-opacity:1;stroke:none;stroke-width:2.68526;stroke-linecap:square;stroke-linejoin:round;stroke-dasharray:none;stroke-opacity:1"
         d="m -81.341768,97.249179 c -2.94072,0 -5.381067,2.384384 -5.381067,5.316481 0,2.9321 2.440347,5.31647 5.381067,5.31647 2.374038,0 4.422672,-1.5538 5.124232,-3.69538 h 10.25829 v 1.59525 c 0,0.85629 0.68935,1.54564 1.54564,1.54564 h 0.14935 c 0.85629,0 1.54564,-0.68935 1.54564,-1.54564 v -1.59525 h 1.22163 v 1.59525 c 0,0.85629 0.68935,1.54564 1.54564,1.54564 h 0.14987 c 0.85629,0 1.54564,-0.68935 1.54564,-1.54564 v -3.1409 -0.14986 c 0,-0.10704 -0.011,-0.21132 -0.0315,-0.31212 -0.005,-0.0252 -0.0107,-0.0502 -0.017,-0.0749 -0.006,-0.0247 -0.0132,-0.0492 -0.0207,-0.0734 -0.15009,-0.48458 -0.53138,-0.86586 -1.01596,-1.01595 -0.0242,-0.008 -0.0486,-0.0143 -0.0734,-0.0207 -0.0247,-0.006 -0.0497,-0.0119 -0.0749,-0.0171 -0.1008,-0.0205 -0.20509,-0.0315 -0.31212,-0.0315 h -16.41606 c -0.70141,-2.141821 -2.750022,-3.696421 -5.124232,-3.696421 z m 0,3.000341 c 1.346882,0 2.3828,1.03331 2.3828,2.31614 0,1.28282 -1.035918,2.31665 -2.3828,2.31665 -1.346883,0 -2.38125,-1.03383 -2.38125,-2.31665 0,-1.28283 1.034367,-2.31614 2.38125,-2.31614 z" />
    </g>
  </g>
</svg>
